<svg id="Layer_1" data-name="Layer 1" xmlns="http://www.w3.org/2000/svg" viewBox="0 0 2048 2048"><defs><style>.cls-1{fill:#0da25f;}</style></defs><polygon class="cls-1" points="579.78 1422.08 621.8 1421.7 621.8 1348.63 554.88 1396.45 579.78 1422.08"/><path class="cls-1" d="M1024,38.23c-366.38,0-663.39,297-663.39,663.39V2009.77H621.8v-50.9L467,1958c-3.11,0-4.79-1.67-4.79-4.78v-69.44c0-36.88,22.27-61.54,54.6-61.54,32.56,0,57.71,24.66,57.71,61.54V1929l47.28-.39V1773.55c-13.35,13.48-33.44,21.48-60,21.35l-94.82-.47c-3.11,0-4.79-1.68-4.79-4.79V1771c0-3.11,1.68-4.79,4.79-4.79l91.71-.48c39.75-.48,57.23-17.24,57.23-45,0-28.26-17.72-43.58-57.23-43.82l-91.71-.48c-3.11,0-4.79-1.68-4.79-4.79v-18.68c0-3.11,1.68-4.79,4.79-4.79l94.82-.48c26.6-.12,46.66,7.91,60,21.39v-54.5l-154.8-.89c-3.11,0-4.79-1.68-4.79-4.79v-69.2c0-36.16,21.31-59.15,50.29-59.15,24.42,0,45,16.53,50.52,44.3L621.8,1483v-31.08l-154.8-.89c-3.11,0-4.79-1.68-4.79-4.79v-18.68c0-3.11,1.68-4.79,4.79-4.79l79.74-.47-82.13-83.81a7.42,7.42,0,0,1-2.4-5.75V1310c0-4.32,2.88-5.51,6-2.4l68.48,70.16L621.8,1313v-45l-154.8-.67c-3.11,0-4.79-1.68-4.79-4.79v-18.68c0-3.11,1.68-4.78,4.79-4.78L621.8,1238v-40l-155.75-57.31a5.23,5.23,0,0,1-3.84-5.51v-22.75a5.21,5.21,0,0,1,3.84-5.5l155.75-57.32v-25.12l-154.8-.9c-3.11,0-4.79-1.67-4.79-4.78V957.3c0-56.75,33.77-86,85-86,31.82,0,58.64,11,74.58,32.7v-52.5L466.05,794.23a5.23,5.23,0,0,1-3.84-5.51V766a5.21,5.21,0,0,1,3.84-5.5L621.8,703.15v-1.53c0-222.13,180.07-402.2,402.2-402.2s402.2,180.07,402.2,402.2c0,213.32-166.09,387.82-376,401.33v-.1h-279v261.41H878.86v0H991.51q16.14.78,32.49.79c366.38,0,663.39-297,663.39-663.38S1390.38,38.23,1024,38.23ZM446.41,1130.66c0,3.83-2.39,5.27-5.75,3.35l-29.21-15.56a6,6,0,0,1-3.35-5.75v-16.76c0-4.07,2.63-5.27,5.75-2.63l29.69,23.7c2.15,1.44,2.87,3.12,2.87,5.75Z"/><polygon class="cls-1" points="564.7 1584.66 621.8 1584.26 621.8 1518.3 564.7 1556.17 564.7 1584.66"/><polygon class="cls-1" points="586.49 1156.04 621.8 1168.41 621.8 1079.44 586.49 1091.63 586.49 1156.04"/><polygon class="cls-1" points="586.49 809.55 621.8 821.92 621.8 732.95 586.49 745.14 586.49 809.55"/><path class="cls-1" d="M487.12,959.21v35.92l125.23-1V959c0-37.83-23-59.38-62-59.38C508.91,899.59,487.12,921.38,487.12,959.21Z"/><path class="cls-1" d="M487.12,1543v42.14l52.68-.48V1543c0-23.71-9.34-34.24-25.15-34.24C497.65,1508.76,487.12,1521.45,487.12,1543Z"/><path class="cls-1" d="M487.12,1885.9v43.58l62.49-.48v-43.1c0-23.23-11.25-35.44-29.93-35.44C499.57,1850.46,487.12,1865.07,487.12,1885.9Z"/><polygon class="cls-1" points="560.87 800.45 560.87 754 496.69 776.51 496.69 777.94 560.87 800.45"/><polygon class="cls-1" points="560.87 1146.94 560.87 1100.49 496.69 1123 496.69 1124.44 560.87 1146.94"/><path class="cls-1" d="M971.73,1968.2c4.66,0,7.17,2.51,7.17,7.17v24.36c0,4.66-2.51,7.17-7.17,7.17H812.64c-4.66,0-7.17-2.51-7.17-7.17v-20.06c0-3.58,0-7.17,4.3-11.83l68.44-70.58c31.89-33.33,53.39-59.84,53.39-84.92,0-21.14-16.48-37.27-43.36-37.27-22.21,0-40.13,11.11-48.73,33.68-1.43,4.3-3.94,6.09-7.88,6.09H806.19c-5.37,0-7.88-2.86-6.45-7.88,9-34.4,39.06-68.79,91-68.79,53.75,0,80.62,36.54,80.62,73.09,0,36.19-28,69.51-64.85,110l-41.21,45.15v1.79Z"/><path class="cls-1" d="M1200.33,1872.17c0,87.07-37.26,138.31-96,138.31-57.33,0-93.52-49.09-93.52-134.36,0-86.36,37.62-135.45,96.38-135.45C1164.5,1740.67,1200.33,1787.61,1200.33,1872.17Zm-146.9-1.43c0,69.51,20.42,102.84,54.82,102.84,33.68,0,50.16-31.89,50.16-94.6,0-69.51-20.78-101.4-54.82-101.4S1053.43,1808,1053.43,1870.74Z"/><path class="cls-1" d="M1414.25,1968.2c4.66,0,7.16,2.51,7.16,7.17v24.36c0,4.66-2.5,7.17-7.16,7.17H1255.16c-4.66,0-7.17-2.51-7.17-7.17v-20.06c0-3.58,0-7.17,4.3-11.83l68.44-70.58c31.89-33.33,53.39-59.84,53.39-84.92,0-21.14-16.49-37.27-43.36-37.27-22.21,0-40.13,11.11-48.73,33.68-1.43,4.3-3.94,6.09-7.88,6.09h-25.44c-5.38,0-7.89-2.86-6.45-7.88,9-34.4,39-68.79,91-68.79,53.75,0,80.62,36.54,80.62,73.09,0,36.19-28,69.51-64.85,110l-41.21,45.15v1.79Z"/><path class="cls-1" d="M1635.33,1968.2c4.65,0,7.16,2.51,7.16,7.17v24.36c0,4.66-2.51,7.17-7.16,7.17H1476.24c-4.66,0-7.17-2.51-7.17-7.17v-20.06c0-3.58,0-7.17,4.3-11.83l68.44-70.58c31.89-33.33,53.39-59.84,53.39-84.92,0-21.14-16.49-37.27-43.36-37.27-22.22,0-40.13,11.11-48.73,33.68-1.43,4.3-3.94,6.09-7.88,6.09h-25.44c-5.38,0-7.89-2.86-6.45-7.88,9-34.4,39.05-68.79,91-68.79,53.75,0,80.62,36.54,80.62,73.09,0,36.19-28,69.51-64.86,110l-41.2,45.15v1.79Z"/></svg>